<?xml version="1.0" encoding="UTF-8" standalone="no"?>
<svg
   xmlns:svg="http://www.w3.org/2000/svg"
   xmlns="http://www.w3.org/2000/svg"
   version="1.0"
   width="191.92558"
   height="187.64871"
   id="svg2178">
  <defs
          id="defs2181" />
  <path
     d="M 96.929513,185.89871 C 96.961333,182.38084 98.895695,160.04198 99.483965,156.39871 C 99.980355,153.32457 99.789435,152.64871 98.424655,152.64871 C 97.509005,152.64871 95.444453,151.33333 93.836763,149.72563 C 89.167253,145.05612 90.151793,137.39327 95.854043,134.02487 C 98.101585,132.69721 98.913685,131.47846 98.913685,129.4331 L 98.913685,126.64871 L 67.654853,126.64871 L 36.396023,126.64871 L 20.142773,101.29277 C 11.203493,87.347005 2.9949628,75.12726 1.9016028,74.137786 C -1.5936572,70.974619 -0.027077143,66.648717 4.6136828,66.648717 C 6.4003528,66.648717 6.9136828,67.206688 6.9136828,69.148717 C 6.9136828,70.523717 7.4264228,71.648717 8.0530928,71.648717 C 8.6797728,71.648717 12.279773,69.154321 16.053093,66.105615 C 21.783523,61.475646 22.913683,60.067233 22.913683,57.555955 C 22.913683,53.802547 25.240703,49.094521 29.115543,45.008358 L 32.093483,41.867998 L 29.003583,40.04275 C 27.304143,39.038864 25.913683,37.864525 25.913683,37.433109 C 25.913683,37.001694 31.313683,36.648717 37.913683,36.648717 L 49.913683,36.648717 L 49.913683,33.148717 L 49.913683,29.648717 L 39.913683,29.648717 C 34.413683,29.648717 29.913683,29.382195 29.913683,29.056446 C 29.913683,28.730697 30.823453,27.307596 31.935393,25.893998 L 33.957093,23.323821 L 31.935393,21.171818 C 30.823453,19.988216 29.913683,18.711318 29.913683,18.334266 C 29.913683,17.957214 34.439103,17.648717 39.970163,17.648717 L 50.026643,17.648717 L 49.720163,11.898717 C 49.443793,6.7135156 49.618733,6.1194196 51.501193,5.8504596 C 54.228973,5.4607216 56.702333,8.2600656 55.071303,9.8910986 C 54.315063,10.647338 53.913683,15.48684 53.913683,23.848717 L 53.913683,36.648717 L 63.854673,36.648717 C 69.322213,36.648717 74.029543,37.027155 74.315403,37.48969 C 74.601263,37.952225 73.506473,39.312999 71.882533,40.513632 C 63.564293,46.663572 60.410293,65.331723 66.472323,72.536037 L 68.909843,75.432865 L 66.411763,76.059843 C 65.037823,76.404681 63.913683,77.19304 63.913683,77.811752 C 63.913683,79.023094 73.040693,91.527373 73.980123,91.603073 C 74.291663,91.628173 76.902983,88.273713 79.783053,84.148717 L 85.019553,76.648717 L 79.916933,76.648717 C 75.583443,76.648717 74.946153,76.413122 75.689003,75.08572 C 76.245983,74.090459 75.912653,71.638621 74.771343,68.33572 C 71.116003,57.757357 73.438643,46.992962 81.516323,37.075751 L 85.907023,31.685149 L 83.160353,31.028675 C 77.400663,29.652065 78.765183,29.13274 89.413683,28.648717 L 100.41368,28.148717 L 100.41368,25.148717 L 100.41368,22.148717 L 90.524963,21.860832 L 80.636243,21.572947 L 82.914343,19.148021 C 85.088393,16.833849 85.116513,16.607213 83.530013,14.185906 L 81.867583,11.648717 L 90.268193,11.648717 C 99.947795,11.648717 102.05487,10.44877 100.0607,6.0720496 C 98.495545,2.6368836 98.604605,1.8844986 100.84124,0.68748656 C 105.22116,-1.6565804 107.45185,2.3715426 104.37462,7.0679856 C 103.20386,8.8547846 102.90473,11.658194 103.12462,18.782802 L 103.41368,28.148717 L 115.66368,28.429496 C 122.40118,28.583924 127.90549,29.033924 127.89548,29.429496 C 127.88547,29.825067 126.53068,32.136077 124.88482,34.565073 C 123.23897,36.994068 121.22215,41.238244 120.40302,43.996574 C 118.49432,50.423858 118.49424,61.948219 120.40286,68.239786 C 122.38365,74.769285 122.42107,74.648717 118.41368,74.648717 C 114.6386,74.648717 113.74749,76.435977 116.41767,78.652027 C 117.24486,79.338537 119.52744,82.543637 121.49007,85.774472 C 123.4527,89.005303 125.58841,91.626913 126.23608,91.600263 C 126.88376,91.573603 129.95831,88.311103 133.06841,84.350259 L 138.72315,77.148717 L 132.56841,76.648717 C 126.94372,76.191776 126.60761,76.037953 128.66555,74.862535 L 130.91741,73.576353 L 128.91555,69.652373 C 127.69755,67.264896 126.91368,63.756516 126.91368,60.692537 C 126.91368,55.880378 130.08576,44.529852 132.16441,41.904043 C 132.70634,41.219473 132.91375,39.756973 132.62532,38.654043 C 132.12652,36.746603 132.58448,36.648717 142.0073,36.648717 L 151.91368,36.648717 L 151.91368,32.148717 L 151.91368,27.648717 L 142.19117,27.648717 C 132.79148,27.648717 132.55076,27.593322 134.94117,25.980311 C 136.30105,25.062688 137.57527,24.188596 137.77277,24.037886 C 137.97027,23.887176 137.15213,22.387959 135.95468,20.706292 L 133.77749,17.648717 L 142.87697,17.648717 C 153.28305,17.648717 153.75024,17.271235 151.44182,10.728471 C 149.21151,4.4071136 149.41128,3.6487166 153.30669,3.6487166 C 157.19907,3.6487166 158.45727,5.5555326 156.3768,8.3015176 C 155.34505,9.6633126 154.96893,13.630534 154.94548,23.398717 L 154.91368,36.648717 L 165.56867,36.648717 C 175.88626,36.648717 176.17045,36.707511 174.54334,38.505449 C 171.66558,41.685331 168.9127,51.181225 168.92842,57.873734 C 168.943,64.080801 169.27557,65.054655 173.65994,71.729149 C 174.89539,73.609912 175.90789,75.486217 175.90994,75.898717 C 175.912,76.311217 171.18868,76.648717 165.41368,76.648717 L 154.91368,76.648717 L 154.91368,83.541728 C 154.91368,91.187453 155.31741,91.665243 161.74547,91.626753 C 167.47554,91.592443 173.57237,88.210363 179.95117,81.527531 C 184.85199,76.393125 185.7239,74.949798 185.27639,72.712283 C 184.62744,69.467519 186.90604,67.19413 189.86569,68.133486 C 192.32539,68.914163 192.69202,73.412808 190.36862,74.304382 C 189.51884,74.630475 185.25232,82.318025 180.88748,91.387823 L 172.95141,107.87837 L 169.48656,107.22836 C 166.59487,106.68588 165.83252,106.93184 164.87806,108.71526 C 163.90578,110.53198 164.13655,111.2719 166.4182,113.65343 L 169.10198,116.45469 L 166.77034,121.53719 L 164.4387,126.61968 L 134.92619,126.88419 L 105.41368,127.14871 L 105.09717,129.3755 C 104.87725,130.92276 106.02159,132.78275 108.84717,135.47066 C 114.01511,140.3868 114.27236,144.03167 109.81009,149.11391 C 108.10311,151.05805 106.05054,152.64871 105.24881,152.64871 C 104.11422,152.64871 103.91314,153.59069 104.34159,156.89871 C 104.64434,159.23621 105.36931,165.64871 105.95264,171.14871 C 106.53596,176.64871 107.26591,182.61121 107.57475,184.39871 L 108.13626,187.64871 L 102.52497,187.64871 C 97.841525,187.64871 96.916303,187.35934 96.929513,185.89871 z M 57.413683,112.14871 C 57.413683,109.14947 57.412163,109.14871 51.427383,109.14871 C 46.447533,109.14871 45.382523,109.45275 45.092813,110.95712 C 44.334433,114.89505 45.603433,115.76415 51.651593,115.44897 C 57.320523,115.15356 57.413683,115.10021 57.413683,112.14871 z M 77.413683,112.14871 C 77.413683,109.19797 77.319263,109.14379 71.663683,108.84881 C 65.923863,108.54943 65.913683,108.55401 65.913683,111.43214 C 65.913683,115.37373 66.573323,115.78325 72.375273,115.44363 C 77.241303,115.1588 77.413683,115.04607 77.413683,112.14871 z M 94.913683,112.14871 L 94.913683,108.64871 L 89.913683,108.64871 L 84.913683,108.64871 L 84.913683,112.14871 L 84.913683,115.64871 L 89.913683,115.64871 L 94.913683,115.64871 L 94.913683,112.14871 z M 114.91368,112.09881 L 114.91368,108.5489 L 109.1734,108.84881 C 104.57032,109.0893 103.36491,109.50697 103.08882,110.95712 C 102.3749,114.70703 103.6381,115.64871 109.3823,115.64871 L 114.91368,115.64871 L 114.91368,112.09881 z M 134.72704,111.89871 L 135.0404,108.64871 L 128.47704,108.64871 C 121.93688,108.64871 121.91368,108.65873 121.91368,111.48204 C 121.91368,115.40781 122.56234,115.77688 128.87398,115.44234 C 134.32282,115.15353 134.41882,115.0954 134.72704,111.89871 z M 109.88188,97.898713 C 109.86438,97.486213 109.18938,96.275203 108.38188,95.207583 C 106.97379,93.345933 106.91368,93.376633 106.91368,95.957583 C 106.91368,97.683033 107.45194,98.648713 108.41368,98.648713 C 109.23868,98.648713 109.89937,98.311213 109.88188,97.898713 z M 117.91368,97.707733 C 117.91368,96.247583 116.26584,95.576343 114.42008,96.284633 C 113.08586,96.796623 113.01678,97.098693 114.07983,97.772563 C 115.86701,98.905453 117.91368,98.870843 117.91368,97.707733 z M 56.913683,96.255703 C 56.913683,95.489543 56.238683,94.603673 55.413683,94.287083 C 53.910133,93.710123 53.295653,95.697343 54.580353,96.982043 C 55.701573,98.103263 56.913683,97.725943 56.913683,96.255703 z M 65.668693,96.398713 C 65.192013,94.951283 60.913683,94.063933 60.913683,95.412493 C 60.913683,96.840553 62.088233,97.648713 64.163683,97.648713 C 65.249903,97.648713 65.901993,97.107113 65.668693,96.398713 z M 73.913683,96.648713 C 73.913683,96.098713 73.013683,95.648713 71.913683,95.648713 C 70.813683,95.648713 69.913683,96.098713 69.913683,96.648713 C 69.913683,97.198713 70.813683,97.648713 71.913683,97.648713 C 73.013683,97.648713 73.913683,97.198713 73.913683,96.648713 z M 86.161953,90.398713 C 89.091803,86.411217 92.515153,81.686217 93.769413,79.898717 L 96.049873,76.648717 L 92.162973,76.648717 C 88.413463,76.648717 88.072553,76.945284 82.517973,85.039126 C 77.312473,92.624293 76.886293,93.631993 78.077323,95.539123 C 78.801923,96.699393 79.718823,97.648713 80.114873,97.648713 C 80.510923,97.648713 83.232113,94.386213 86.161953,90.398713 z M 126.91368,96.707733 C 126.91368,95.271193 125.27626,94.572353 123.50392,95.252453 C 121.0623,96.189393 121.61635,97.648713 124.41368,97.648713 C 125.78868,97.648713 126.91368,97.225273 126.91368,96.707733 z M 139.05439,88.455313 C 147.84314,75.749715 147.45227,76.640077 144.21337,76.70379 C 141.95227,76.748268 140.35562,78.127706 135.91368,83.874403 C 128.92735,92.912863 128.29543,94.198843 129.89393,96.124913 C 130.58948,96.963003 131.50429,97.648713 131.92684,97.648713 C 132.34939,97.648713 135.55679,93.511683 139.05439,88.455313 z M 34.533263,93.898713 C 35.630903,92.386213 38.680023,88.111213 41.309103,84.398717 L 46.089243,77.648717 L 41.719973,77.648717 C 37.465643,77.648717 37.200053,77.844427 31.623933,85.088463 C 24.513533,94.325703 24.080843,95.359993 27.087233,95.932963 C 31.754983,96.822563 32.573733,96.598883 34.533263,93.898713 z M 48.078363,90.050583 C 48.262793,86.421614 48.165753,83.300409 47.862713,83.114574 C 47.329303,82.787464 45.394233,85.050076 39.494933,92.898713 L 36.676313,96.648713 L 42.209673,96.648713 L 47.743033,96.648713 L 48.078363,90.050583 z M 98.913685,86.96403 L 98.913685,77.279342 L 92.413683,86.49758 C 88.838683,91.567613 85.913683,95.925713 85.913683,96.182263 C 85.913683,96.438813 88.838683,96.648713 92.413683,96.648713 L 98.913685,96.648713 L 98.913685,86.96403 z M 142.91368,93.648713 C 144.45501,91.998713 146.62216,90.648713 147.72956,90.648713 C 149.5098,90.648713 149.78187,89.885703 150.07835,84.061521 C 150.26278,80.438563 150.2475,77.309885 150.0444,77.108904 C 149.67646,76.744814 135.91368,95.334923 135.91368,96.196003 C 135.91368,97.836883 140.59147,96.134643 142.91368,93.648713 z M 114.28983,93.110863 C 114.62965,92.225303 114.23258,91.324583 113.35369,90.987323 C 111.39708,90.236503 110.50422,91.139303 111.25876,93.105593 C 112.01785,95.083753 113.53175,95.086383 114.28983,93.110863 z M 121.91368,92.148713 C 121.91368,91.315383 121.02479,90.648713 119.91368,90.648713 C 118.80257,90.648713 117.91368,91.315383 117.91368,92.148713 C 117.91368,92.982053 118.80257,93.648713 119.91368,93.648713 C 121.02479,93.648713 121.91368,92.982053 121.91368,92.148713 z M 27.370583,85.788128 C 30.419293,82.014804 32.913683,78.639804 32.913683,78.288128 C 32.913683,77.936452 30.776183,77.645063 28.163683,77.640596 L 23.413683,77.632475 L 23.250373,72.060612 C 23.160543,68.996087 22.848323,66.250022 22.556553,65.958245 C 22.064863,65.466559 9.9136828,74.472258 9.9136828,75.328352 C 9.9136828,78.216254 19.114663,92.648713 20.955753,92.648713 C 21.435203,92.648713 24.321883,89.561453 27.370583,85.788128 z M 69.413683,91.648713 C 69.073763,91.098713 68.120653,90.648713 67.295653,90.648713 C 66.470653,90.648713 66.073763,91.098713 66.413683,91.648713 C 66.753603,92.198713 67.706723,92.648713 68.531723,92.648713 C 69.356723,92.648713 69.753603,92.198713 69.413683,91.648713 z M 61.413683,90.648713 C 61.073763,90.098713 60.173763,89.648713 59.413683,89.648713 C 58.653603,89.648713 57.753603,90.098713 57.413683,90.648713 C 57.061773,91.218113 57.922973,91.648713 59.413683,91.648713 C 60.904403,91.648713 61.765593,91.218113 61.413683,90.648713 z M 57.913683,86.848717 C 57.913683,85.81374 55.748663,83.648717 54.713683,83.648717 C 54.273683,83.648717 53.913683,84.548717 53.913683,85.648717 C 53.913683,86.98205 54.580353,87.648713 55.913683,87.648713 C 57.013683,87.648713 57.913683,87.288717 57.913683,86.848717 z M 65.304983,86.226036 C 64.723513,84.710757 61.948963,83.280105 61.147023,84.08205 C 60.082313,85.146758 61.979053,87.648713 63.850913,87.648713 C 65.169543,87.648713 65.664923,87.164028 65.304983,86.226036 z M 110.91368,86.771162 C 110.91368,85.325807 108.07987,83.427969 106.95748,84.121644 C 104.93501,85.371601 105.87515,87.648713 108.41368,87.648713 C 109.78868,87.648713 110.91368,87.253817 110.91368,86.771162 z M 117.91368,85.648717 C 116.71793,83.414436 112.91368,82.907203 112.91368,84.98205 C 112.91368,86.91507 113.93212,87.648713 116.61553,87.648713 C 118.67417,87.648713 118.84401,87.387053 117.91368,85.648717 z M 59.913683,79.648717 C 59.913683,78.093161 59.247023,77.648717 56.913683,77.648717 C 54.580353,77.648717 53.913683,78.093161 53.913683,79.648717 C 53.913683,81.204273 54.580353,81.648717 56.913683,81.648717 C 59.247023,81.648717 59.913683,81.204273 59.913683,79.648717 z M 112.73323,79.500845 C 112.30316,76.610103 109.37884,74.78356 107.76483,76.397565 C 106.82631,77.336091 106.96461,78.047518 108.3923,79.625088 C 110.83408,82.323224 113.1433,82.25713 112.73323,79.500845 z "
     style="fill:rgb(216, 164, 32)"
     id="path2187" >
  </path>
</svg>
